<svg xmlns="http://www.w3.org/2000/svg" viewBox="0 0 512 512">
  <defs>
    <linearGradient id="shieldGradient" x1="0%" y1="0%" x2="100%" y2="100%">
      <stop offset="0%" style="stop-color:#1E3A5C"/>
      <stop offset="50%" style="stop-color:#0A4DA6"/>
      <stop offset="100%" style="stop-color:#2563eb"/>
    </linearGradient>
  </defs>
  <path fill="url(#shieldGradient)" d="M256 16c-141.4 0-256 114.6-256 256s114.6 256 256 256 256-114.6 256-256S397.4 16 256 16z"/>
  <path fill="#ffffff" d="M256 96c-8.8 0-16 7.2-16 16v16c-44.2 0-80 35.8-80 80v32c0 88.4 71.6 160 160 160h16c8.8 0 16-7.2 16-16v-16c44.2 0 80-35.8 80-80v-32c0-88.4-71.6-160-160-160zM256 128v240c-61.9 0-112-50.1-112-112v-16c0-61.9 50.1-112 112-112z"/>
  <path fill="#ffffff" d="M256 128l-112 48v80c0 61.9 50.1 112 112 112s112-50.1 112-112v-80L256 128zm80 128c0 44.2-35.8 80-80 80s-80-35.8-80-80v-52l80-34 80 34v52z"/>
</svg>
